<?xml version="1.0" standalone="no"?>
<!DOCTYPE svg PUBLIC "-//W3C//DTD SVG 20010904//EN"
 "http://www.w3.org/TR/2001/REC-SVG-20010904/DTD/svg10.dtd">
<svg version="1.0" xmlns="http://www.w3.org/2000/svg"
 width="256.000000pt" height="256.000000pt" viewBox="0 0 256.000000 256.000000"
 preserveAspectRatio="xMidYMid meet">
<metadata>
Created by potrace 1.14, written by Peter Selinger 2001-2017
</metadata>
<g transform="translate(0.000000,256.000000) scale(0.100000,-0.100000)"
fill="#000000" stroke="none">
<path d="M615 1920 c-303 -55 -496 -309 -496 -655 0 -339 147 -560 420 -634
60 -15 101 -19 206 -17 72 1 135 5 141 9 6 3 24 8 40 11 59 11 86 28 80 50 -3
12 -11 47 -17 78 -11 55 -12 56 -36 47 -128 -49 -306 -44 -413 11 -135 69
-209 211 -216 415 -10 286 105 470 325 521 72 17 192 11 265 -14 40 -13 59
-16 62 -8 15 41 40 147 35 150 -9 5 -75 26 -102 32 -45 10 -244 13 -294 4z"/>
<path d="M1107 1752 c-16 -3 -17 -43 -17 -483 l0 -479 70 0 70 0 0 480 c0 264
-3 480 -7 481 -28 3 -102 3 -116 1z"/>
<path d="M1420 1752 c-7 -3 -10 -166 -10 -483 l0 -479 70 0 70 0 0 480 c0 264
-3 480 -7 481 -25 3 -114 4 -123 1z"/>
<path d="M604 1576 c-27 -13 -59 -33 -70 -44 -60 -57 -93 -157 -89 -267 5
-127 44 -207 130 -260 43 -26 57 -30 124 -30 65 0 83 4 122 27 82 48 125 126
136 246 6 67 -10 169 -34 217 -58 114 -204 165 -319 111z m157 -67 c74 -28
118 -172 94 -302 -27 -140 -149 -205 -239 -127 -120 105 -89 394 46 437 34 11
53 9 99 -8z"/>
<path d="M2330 1481 c-19 -5 -26 -14 -28 -39 -3 -26 -8 -32 -28 -32 -19 0 -23
-5 -22 -25 2 -24 9 -29 36 -26 9 1 12 -25 12 -105 0 -130 15 -170 66 -180 51
-9 81 1 79 28 -1 16 -9 24 -26 26 -45 7 -49 18 -49 128 l0 104 28 -2 c35 -2
52 8 52 33 0 16 -7 19 -40 19 l-40 0 0 40 c0 22 -3 40 -7 39 -5 -1 -19 -4 -33
-8z"/>
<path d="M1745 1407 c-63 -30 -95 -96 -89 -187 4 -58 21 -89 68 -124 21 -16
42 -21 94 -21 87 1 101 6 95 39 -3 14 -9 23 -14 20 -5 -3 -31 -7 -57 -9 -54
-3 -94 16 -111 52 -23 51 -19 53 94 53 113 0 109 -2 106 59 -2 40 -21 79 -50
105 -26 24 -97 30 -136 13z m99 -56 c9 -10 19 -30 22 -45 l4 -26 -76 0 c-65 0
-75 2 -70 16 3 9 6 20 6 24 0 18 45 50 70 50 15 0 35 -8 44 -19z"/>
<path d="M2085 1408 c-43 -15 -65 -37 -86 -83 -38 -82 -12 -194 54 -232 61
-36 167 -25 167 16 0 17 -7 20 -55 19 -47 -1 -60 2 -81 23 -36 36 -43 121 -15
166 23 37 79 57 117 43 21 -8 25 -6 30 16 4 14 4 28 0 31 -11 11 -101 12 -131
1z"/>
</g>
</svg>
